<svg xmlns="http://www.w3.org/2000/svg" viewBox="0 0 800 450" width="100%" height="100%">
  <defs>
    <linearGradient id="silverMetallic" x1="0%" y1="0%" x2="100%" y2="100%">
      <stop offset="0%" stop-color="#d0d7de"/>
      <stop offset="25%" stop-color="#ffffff"/>
      <stop offset="50%" stop-color="#a2aab2"/>
      <stop offset="75%" stop-color="#f1f3f5"/>
      <stop offset="100%" stop-color="#78828c"/>
    </linearGradient>

    <linearGradient id="aquaMirror" x1="0%" y1="100%" x2="100%" y2="0%">
      <stop offset="0%" stop-color="#146070"/>
      <stop offset="30%" stop-color="#2ca1b0"/>
      <stop offset="70%" stop-color="#54e2ec"/>
      <stop offset="100%" stop-color="#a6f7fd"/>
    </linearGradient>
    
    <linearGradient id="skyReflection" x1="0%" y1="0%" x2="100%" y2="100%">
      <stop offset="0%" stop-color="#ffffff" stop-opacity="0.45"/>
      <stop offset="35%" stop-color="#ffffff" stop-opacity="0.15"/>
      <stop offset="70%" stop-color="#ffffff" stop-opacity="0"/>
    </linearGradient>
  </defs>

  <rect width="100%" height="100%" fill="none"/>

  <g transform="translate(0, 15)">
    <path d="M 140 212 C 105 220, 80 240, 70 255" fill="none" stroke="url(#silverMetallic)" stroke-width="2" stroke-linecap="round"/>
    <path d="M 660 212 C 695 220, 720 240, 730 255" fill="none" stroke="url(#silverMetallic)" stroke-width="2" stroke-linecap="round"/>

    <path d="M 374 205 C 388 194, 412 194, 426 205" fill="none" stroke="url(#silverMetallic)" stroke-width="3.5" stroke-linecap="round"/>

    <g id="leftEye">
      <path d="
        M 175 160 
        L 245 142 
        C 310 142, 360 185, 360 235 
        C 360 285, 310 325, 250 325 
        C 190 325, 142 285, 142 235 
        C 142 198, 155 175, 175 160 Z" 
        fill="url(#aquaMirror)"
      />
      <path d="
        M 175 160 
        L 245 142 
        C 310 142, 360 185, 360 235 
        C 360 285, 310 325, 250 325 
        C 190 325, 142 285, 142 235 
        C 142 198, 155 175, 175 160 Z" 
        fill="url(#skyReflection)"
      />
      <path d="
        M 175 160 
        L 245 142 
        C 310 142, 360 185, 360 235 
        C 360 285, 310 325, 250 325 
        C 190 325, 142 285, 142 235 
        C 142 198, 155 175, 175 160 Z" 
        fill="none" 
        stroke="url(#silverMetallic)" 
        stroke-width="3" 
        stroke-linejoin="round"
      />
    </g>

    <g id="rightEye">
      <path d="
        M 625 160 
        L 555 142 
        C 490 142, 440 185, 440 235 
        C 440 285, 490 325, 550 325 
        C 610 325, 658 285, 658 235 
        C 658 198, 645 175, 625 160 Z" 
        fill="url(#aquaMirror)"
      />
      <path d="
        M 625 160 
        L 555 142 
        C 490 142, 440 185, 440 235 
        C 440 285, 490 325, 550 325 
        C 610 325, 658 285, 658 235 
        C 658 198, 645 175, 625 160 Z" 
        fill="url(#skyReflection)"
      />
      <path d="
        M 625 160 
        L 555 142 
        C 490 142, 440 185, 440 235 
        C 440 285, 490 325, 550 325 
        C 610 325, 658 285, 658 235 
        C 658 198, 645 175, 625 160 Z" 
        fill="none" 
        stroke="url(#silverMetallic)" 
        stroke-width="3" 
        stroke-linejoin="round"
      />
    </g>

    <ellipse cx="364" cy="245" rx="3.5" ry="7" fill="#ffffff" fill-opacity="0.5" stroke="url(#silverMetallic)" stroke-width="1" transform="rotate(-15, 364, 245)"/>
    <ellipse cx="436" cy="245" rx="3.5" ry="7" fill="#ffffff" fill-opacity="0.5" stroke="url(#silverMetallic)" stroke-width="1" transform="rotate(15, 436, 245)"/>

    <line x1="142" y1="215" x2="124" y2="215" stroke="url(#silverMetallic)" stroke-width="3" stroke-linecap="round"/>
    <line x1="658" y1="215" x2="676" y2="215" stroke="url(#silverMetallic)" stroke-width="3" stroke-linecap="round"/>
  </g>
</svg>
